<svg width="322" height="200" viewBox="0 0 322 200" fill="none" xmlns="http://www.w3.org/2000/svg">
<path d="M0.871582 71.2L56.9153 132.861L56.9153 9.53899L0.871582 71.2Z" fill="url(#paint0_linear_123_689)"/>
<path d="M112.872 128.8L56.8278 190.461L56.8278 67.1391L112.872 128.8Z" fill="url(#paint1_linear_123_689)"/>
<path d="M151.305 130.96C146.398 130.96 142.238 130.133 138.825 128.48C135.411 126.773 132.505 124.587 130.105 121.92L138.105 113.84C141.891 118.107 146.558 120.24 152.105 120.24C155.091 120.24 157.305 119.627 158.745 118.4C160.185 117.173 160.905 115.547 160.905 113.52C160.905 111.973 160.478 110.693 159.625 109.68C158.771 108.613 157.038 107.893 154.425 107.52L148.905 106.8C142.985 106.053 138.638 104.267 135.865 101.44C133.145 98.6133 131.785 94.8533 131.785 90.16C131.785 87.6533 132.265 85.36 133.225 83.28C134.185 81.2 135.545 79.4133 137.305 77.92C139.118 76.4267 141.305 75.28 143.865 74.48C146.478 73.6267 149.438 73.2 152.745 73.2C156.958 73.2 160.665 73.8667 163.865 75.2C167.065 76.5333 169.811 78.48 172.105 81.04L164.025 89.2C162.691 87.6533 161.065 86.4 159.145 85.44C157.278 84.4267 154.905 83.92 152.025 83.92C149.305 83.92 147.278 84.4 145.945 85.36C144.611 86.32 143.945 87.6533 143.945 89.36C143.945 91.28 144.451 92.6667 145.465 93.52C146.531 94.3733 148.238 94.9867 150.585 95.36L156.105 96.24C161.865 97.1467 166.131 98.9333 168.905 101.6C171.678 104.213 173.065 107.947 173.065 112.8C173.065 115.467 172.585 117.92 171.625 120.16C170.665 122.4 169.251 124.32 167.385 125.92C165.571 127.52 163.305 128.773 160.585 129.68C157.865 130.533 154.771 130.96 151.305 130.96ZM180.986 130V120.32H188.186V83.84H180.986V74.16H207.546V83.84H200.346V120.32H207.546V130H180.986ZM240.238 130.96C236.451 130.96 233.038 130.373 229.998 129.2C226.958 127.973 224.371 126.187 222.238 123.84C220.104 121.44 218.451 118.48 217.278 114.96C216.104 111.387 215.518 107.227 215.518 102.48C215.518 97.7867 216.104 93.6267 217.278 90C218.451 86.32 220.104 83.2533 222.238 80.8C224.371 78.2933 226.958 76.4 229.998 75.12C233.038 73.84 236.451 73.2 240.238 73.2C245.411 73.2 249.678 74.2667 253.038 76.4C256.398 78.48 259.091 81.7867 261.118 86.32L250.638 91.76C249.891 89.4133 248.718 87.5467 247.118 86.16C245.571 84.72 243.278 84 240.238 84C236.664 84 233.784 85.1733 231.598 87.52C229.464 89.8133 228.398 93.1733 228.398 97.6V106.56C228.398 110.987 229.464 114.373 231.598 116.72C233.784 119.013 236.664 120.16 240.238 120.16C243.224 120.16 245.598 119.36 247.358 117.76C249.171 116.107 250.504 114.133 251.358 111.84L261.278 117.6C259.198 121.867 256.451 125.173 253.038 127.52C249.678 129.813 245.411 130.96 240.238 130.96ZM287.867 130.96C282.96 130.96 278.8 130.133 275.387 128.48C271.974 126.773 269.067 124.587 266.667 121.92L274.667 113.84C278.454 118.107 283.12 120.24 288.667 120.24C291.654 120.24 293.867 119.627 295.307 118.4C296.747 117.173 297.467 115.547 297.467 113.52C297.467 111.973 297.04 110.693 296.187 109.68C295.334 108.613 293.6 107.893 290.987 107.52L285.467 106.8C279.547 106.053 275.2 104.267 272.427 101.44C269.707 98.6133 268.347 94.8533 268.347 90.16C268.347 87.6533 268.827 85.36 269.787 83.28C270.747 81.2 272.107 79.4133 273.867 77.92C275.68 76.4267 277.867 75.28 280.427 74.48C283.04 73.6267 286 73.2 289.307 73.2C293.52 73.2 297.227 73.8667 300.427 75.2C303.627 76.5333 306.374 78.48 308.667 81.04L300.587 89.2C299.254 87.6533 297.627 86.4 295.707 85.44C293.84 84.4267 291.467 83.92 288.587 83.92C285.867 83.92 283.84 84.4 282.507 85.36C281.174 86.32 280.507 87.6533 280.507 89.36C280.507 91.28 281.014 92.6667 282.027 93.52C283.094 94.3733 284.8 94.9867 287.147 95.36L292.667 96.24C298.427 97.1467 302.694 98.9333 305.467 101.6C308.24 104.213 309.627 107.947 309.627 112.8C309.627 115.467 309.147 117.92 308.187 120.16C307.227 122.4 305.814 124.32 303.947 125.92C302.134 127.52 299.867 128.773 297.147 129.68C294.427 130.533 291.334 130.96 287.867 130.96Z" fill="black"/>
<defs>
<linearGradient id="paint0_linear_123_689" x1="38.2341" y1="28.7691" x2="38.2341" y2="122.088" gradientUnits="userSpaceOnUse">
<stop stop-color="#FF4A4A"/>
<stop offset="1" stop-color="#FFC6C6"/>
</linearGradient>
<linearGradient id="paint1_linear_123_689" x1="75.5091" y1="172.677" x2="68.5848" y2="64.2805" gradientUnits="userSpaceOnUse">
<stop stop-color="#FF4D4D"/>
<stop offset="1" stop-color="#FFC6C6"/>
</linearGradient>
</defs>
</svg>
